	Source - Iron Man 3 2013 CAM READNFO XviD MP3 MiLLENiUM

NOTES - Enjoy.
General
Complete name                            : Iron Man 3 2013 CAM AAC x264-SSDD.mp4
Format                                   : MPEG-4
Format profile                           : Base Media
Codec ID                                 : isom
File size                                : 550 MiB
Duration                                 : 1h 58mn
Overall bit rate mode                    : Variable
Overall bit rate                         : 652 Kbps

Video
ID                                       : 1
Format                                   : AVC
Format/Info                              : Advanced Video Codec
Format profile                           : High@L4.1
Format settings, CABAC                   : Yes
Format settings, ReFrames                : 4 frames
Codec ID                                 : avc1
Codec ID/Info                            : Advanced Video Coding
Duration                                 : 1h 58mn
Bit rate                                 : 584 Kbps
Maximum bit rate                         : 1 657 Kbps
Width                                    : 720 pixels
Height                                   : 282 pixels
Display aspect ratio                     : 2.553
Frame rate mode                          : Constant
Frame rate                               : 25.000 fps
Color space                              : YUV
Chroma subsampling                       : 4:2:0
Bit depth                                : 8 bits
Scan type                                : Progressive
Bits/(Pixel*Frame)                       : 0.115
Stream size                              : 494 MiB (90%)
Writing library                          : x264 core 130 r2273 b3065e6

Audio
ID                                       : 2
Format                                   : AAC
Format/Info                              : Advanced Audio Codec
Format profile                           : LC
Codec ID                                 : 40
Duration                                 : 1h 58mn
Bit rate mode                            : Variable
Bit rate                                 : 64.0 Kbps
Maximum bit rate                         : 70.6 Kbps
Channel(s)                               : 2 channels
Channel positions                        : Front: L R
Sampling rate                            : 44.1 KHz
Compression mode                         : Lossy
Stream size                              : 54.1 MiB (10%)

Screens:
 
http://i.imgur.com/YWWyAmj.png 
http://i.imgur.com/iXPBRkl.png 
http://i.imgur.com/kXkCMu6.png 
http://i.imgur.com/xsQ6sPJ.png
